<?xml version="1.0" standalone="no"?>
<!DOCTYPE svg PUBLIC "-//W3C//DTD SVG 20010904//EN"
 "http://www.w3.org/TR/2001/REC-SVG-20010904/DTD/svg10.dtd">
<svg version="1.0" xmlns="http://www.w3.org/2000/svg"
 width="738.000000pt" height="738.000000pt" viewBox="0 0 738.000000 738.000000"
 preserveAspectRatio="xMidYMid meet">

<g transform="translate(0.000000,738.000000) scale(0.100000,-0.100000)"
fill="#000000" stroke="none">
<path d="M3263 7300 c-126 -23 -238 -92 -269 -167 -8 -17 -23 -93 -34 -170
-12 -76 -30 -183 -40 -238 -11 -55 -21 -131 -24 -170 -3 -38 -8 -108 -11 -155
-3 -47 -15 -208 -27 -359 -19 -234 -20 -290 -10 -385 12 -123 37 -207 78 -264
35 -49 133 -122 206 -155 82 -36 173 -101 196 -139 40 -66 49 -182 44 -539
l-2 -116 -112 -6 c-62 -3 -147 -11 -188 -16 -41 -6 -124 -16 -185 -21 -223
-21 -300 -31 -488 -66 -432 -79 -768 -183 -994 -310 l-61 -34 0 -127 c0 -89
-7 -166 -23 -253 -15 -84 -23 -166 -23 -252 l-1 -128 40 -40 c22 -22 90 -79
150 -127 60 -49 124 -107 142 -131 50 -65 51 -94 9 -229 -44 -145 -56 -241
-56 -445 0 -293 55 -577 175 -909 l28 -77 -51 -73 c-59 -85 -257 -342 -364
-473 -40 -48 -80 -101 -88 -116 -8 -15 -23 -39 -34 -54 l-18 -26 46 -64 c84
-118 200 -153 466 -143 85 4 216 13 290 22 74 8 204 15 288 15 173 0 245 -12
387 -68 50 -19 221 -78 380 -132 l290 -97 3 -31 c4 -38 22 -43 22 -7 0 31 4
31 109 0 80 -23 98 -25 305 -24 l221 1 -104 14 c-169 23 -352 69 -661 164
-432 134 -1377 372 -1463 369 -33 -1 91 -42 223 -74 63 -15 133 -32 155 -38
39 -11 39 -11 10 -14 -16 -2 -104 -13 -195 -24 -180 -22 -384 -26 -470 -9 -77
14 -152 53 -194 100 -41 46 -44 55 -16 70 11 6 36 34 55 63 19 29 49 70 67 93
18 23 59 75 90 117 93 123 289 347 299 341 5 -3 20 -26 33 -52 26 -51 116
-145 210 -217 32 -25 60 -45 62 -45 2 0 -25 35 -62 78 -168 198 -263 379 -329
627 -82 309 -90 361 -90 615 0 231 29 565 48 553 5 -3 46 -62 92 -132 45 -69
106 -148 135 -176 61 -58 60 -55 -32 83 -38 57 -83 126 -99 155 -31 52 -72
147 -64 147 19 0 123 -50 210 -101 58 -33 133 -70 167 -81 90 -28 242 -33 423
-14 287 32 353 36 805 51 250 8 554 20 675 25 463 20 520 15 780 -76 314 -110
339 -117 455 -118 95 -1 109 1 150 24 24 14 60 45 78 70 25 33 33 38 27 20
-31 -100 -116 -199 -255 -294 -52 -36 -331 -176 -350 -176 -5 0 -11 -4 -14 -9
-9 -14 106 15 177 45 119 50 232 127 361 245 l69 64 -6 -85 c-32 -400 -30
-533 13 -689 l21 -73 -30 -47 c-17 -25 -81 -115 -144 -198 -119 -161 -171
-253 -206 -367 -32 -103 -26 -101 34 11 81 154 204 330 217 313 2 -3 13 -45
26 -93 39 -157 150 -360 302 -551 33 -42 60 -78 60 -81 0 -24 -435 -182 -647
-236 -54 -14 -87 -27 -80 -31 7 -4 50 -8 97 -8 l85 -1 -55 -35 c-260 -168
-613 -248 -945 -215 -299 30 -638 132 -928 278 -38 19 -71 32 -74 30 -8 -8
378 -194 480 -232 219 -80 452 -124 674 -128 72 -1 126 -5 120 -8 -7 -4 -46
-12 -87 -19 -41 -6 -82 -13 -90 -15 -8 -1 65 -3 162 -4 l178 -1 99 44 c55 24
207 102 338 173 303 166 315 172 453 223 134 50 236 99 268 130 29 27 44 64
35 87 -13 36 -69 109 -151 197 -46 50 -101 120 -123 156 -39 67 -97 229 -119
334 l-12 58 35 37 c77 80 89 153 57 345 -15 91 -21 169 -20 270 0 140 5 189
51 503 l23 162 46 7 c72 11 171 44 218 72 38 24 42 30 36 56 -10 46 -67 181
-133 315 -34 68 -61 130 -61 137 0 7 11 53 25 101 30 109 55 276 55 374 l0 74
-73 54 c-396 291 -1046 481 -1816 532 l-181 12 0 139 c0 275 31 408 114 488
75 72 141 122 199 151 139 71 221 141 259 224 21 46 23 66 26 262 5 304 -12
644 -43 853 -43 293 -73 415 -126 522 -55 109 -101 146 -234 188 -63 19 -97
22 -335 25 -146 2 -288 0 -317 -5z m547 -23 c61 -3 167 -36 218 -67 74 -45
136 -185 186 -420 50 -236 70 -464 82 -935 11 -429 8 -434 -317 -630 -106 -64
-180 -139 -225 -230 -42 -87 -53 -163 -54 -382 0 -148 -2 -162 -17 -160 -12 0
-18 10 -19 29 -1 15 2 28 6 28 9 0 6 52 -4 68 -4 7 -2 12 4 12 8 0 7 6 -1 21
-6 12 -7 19 -2 16 5 -3 8 33 8 83 -1 49 1 87 5 85 4 -2 7 31 9 73 1 42 6 81
11 86 6 6 10 18 10 27 0 10 7 24 15 33 12 11 13 20 4 43 l-10 28 -18 -38 c-17
-37 -18 -37 -29 -15 -10 22 -11 22 -11 -7 -1 -22 -4 -26 -10 -16 -14 22 -39
22 -46 0 -7 -21 2 -42 15 -34 4 3 8 -5 8 -18 -1 -34 9 -100 18 -121 5 -12 4
-17 -3 -13 -11 7 -10 -33 1 -73 6 -20 5 -22 -4 -10 -10 13 -11 12 -6 -3 14
-45 18 -70 10 -64 -5 3 -9 -5 -9 -18 0 -13 3 -21 6 -19 4 2 6 -7 5 -20 0 -13
-5 -22 -9 -19 -4 3 -1 -12 7 -32 20 -48 20 -68 0 -35 -14 23 -13 13 3 -27 4
-11 3 -14 -5 -9 -7 4 -10 2 -7 -6 12 -32 -10 -39 -111 -36 l-99 3 -3 55 c-2
30 -5 99 -6 153 -2 53 -6 100 -9 104 -4 3 -8 -41 -9 -98 -1 -57 -4 4 -8 136
l-7 240 -32 51 c-34 54 -109 108 -237 172 -108 54 -190 139 -215 222 -27 94
-40 440 -20 575 6 39 17 183 26 320 9 138 25 295 35 350 11 55 29 163 40 239
12 82 28 152 38 170 27 46 164 124 238 135 50 8 373 7 554 -2z m-150 -2297
c-4 -3 -11 -13 -16 -22 -7 -13 -10 -8 -10 21 -1 36 0 37 15 22 10 -9 14 -18
11 -21z m-43 8 c-3 -8 -6 -5 -6 6 -1 11 2 17 5 13 3 -3 4 -12 1 -19z m36 -523
c-3 -9 -8 -14 -10 -11 -3 3 -2 9 2 15 9 16 15 13 8 -4z m222 -105 c685 -37
1185 -149 1574 -351 64 -33 152 -85 196 -117 l80 -58 0 -139 c-1 -164 -21
-262 -67 -326 l-29 -41 20 -66 c11 -37 48 -114 82 -172 76 -131 119 -215 119
-234 0 -34 -288 -98 -560 -126 -63 -6 -122 -14 -130 -17 -35 -13 52 -23 178
-22 73 1 135 -1 138 -4 11 -11 -102 -117 -123 -117 -39 0 -295 50 -458 90 -88
21 -279 73 -425 115 -146 42 -319 92 -385 111 -449 130 -939 218 -1190 213
l-60 -1 60 -10 c356 -54 646 -114 975 -203 113 -31 263 -71 333 -89 70 -18
130 -36 133 -39 3 -3 -54 -6 -128 -6 -282 -2 -1495 -53 -1712 -72 -162 -15
-291 -7 -376 21 -141 46 -312 145 -455 262 -80 66 -279 264 -310 309 -25 35
-25 37 -16 145 5 60 27 207 48 327 l38 218 100 49 c121 59 348 136 548 185
154 38 451 95 493 95 13 0 33 9 43 19 13 13 21 15 24 8 2 -8 45 -6 158 7 308
37 775 53 1084 36z"/>
<path d="M3386 7167 c3 -10 9 -15 12 -12 3 3 0 11 -7 18 -10 9 -11 8 -5 -6z"/>
<path d="M3490 7171 c0 -6 4 -13 10 -16 6 -3 7 1 4 9 -7 18 -14 21 -14 7z"/>
<path d="M3410 7161 c0 -6 4 -13 10 -16 6 -3 7 1 4 9 -7 18 -14 21 -14 7z"/>
<path d="M3340 7151 c0 -6 4 -13 10 -16 6 -3 7 1 4 9 -7 18 -14 21 -14 7z"/>
<path d="M3951 7144 c0 -11 3 -14 6 -6 3 7 2 16 -1 19 -3 4 -6 -2 -5 -13z"/>
<path d="M3972 7130 c0 -14 2 -19 5 -12 2 6 2 18 0 25 -3 6 -5 1 -5 -13z"/>
<path d="M4002 7105 c0 -16 2 -22 5 -12 2 9 2 23 0 30 -3 6 -5 -1 -5 -18z"/>
<path d="M4022 7080 c0 -14 2 -19 5 -12 2 6 2 18 0 25 -3 6 -5 1 -5 -13z"/>
<path d="M4052 7000 c0 -14 2 -19 5 -12 2 6 2 18 0 25 -3 6 -5 1 -5 -13z"/>
<path d="M4071 6954 c0 -11 3 -14 6 -6 3 7 2 16 -1 19 -3 4 -6 -2 -5 -13z"/>
<path d="M4098 6927 c-3 -19 -2 -25 4 -19 6 6 8 18 6 28 -3 14 -5 12 -10 -9z"/>
<path d="M4112 6850 c0 -14 2 -19 5 -12 2 6 2 18 0 25 -3 6 -5 1 -5 -13z"/>
<path d="M4132 6835 c0 -16 2 -22 5 -12 2 9 2 23 0 30 -3 6 -5 -1 -5 -18z"/>
<path d="M4142 6775 c0 -16 2 -22 5 -12 2 9 2 23 0 30 -3 6 -5 -1 -5 -18z"/>
<path d="M2971 6554 c0 -11 3 -14 6 -6 3 7 2 16 -1 19 -3 4 -6 -2 -5 -13z"/>
<path d="M2981 6420 c14 -31 19 -36 19 -24 0 6 -7 19 -16 30 -14 18 -14 18 -3
-6z"/>
<path d="M2986 6337 c3 -10 9 -15 12 -12 3 3 0 11 -7 18 -10 9 -11 8 -5 -6z"/>
<path d="M2970 6316 c0 -8 4 -17 9 -20 5 -4 7 3 4 14 -6 23 -13 26 -13 6z"/>
<path d="M2960 6275 c0 -8 4 -15 10 -15 5 0 7 7 4 15 -4 8 -8 15 -10 15 -2 0
-4 -7 -4 -15z"/>
<path d="M2975 6170 c9 -16 18 -30 21 -30 2 0 -2 14 -11 30 -9 17 -18 30 -21
30 -2 0 2 -13 11 -30z"/>
<path d="M2950 6176 c0 -12 29 -76 34 -76 3 0 -2 17 -11 38 -16 38 -23 50 -23
38z"/>
<path d="M2956 5947 c3 -10 9 -15 12 -12 3 3 0 11 -7 18 -10 9 -11 8 -5 -6z"/>
<path d="M2930 5945 c0 -5 5 -17 10 -25 5 -8 10 -10 10 -5 0 6 -5 17 -10 25
-5 8 -10 11 -10 5z"/>
<path d="M2912 5750 c0 -14 2 -19 5 -12 2 6 2 18 0 25 -3 6 -5 1 -5 -13z"/>
<path d="M2946 5754 c-3 -9 -4 -19 -1 -22 3 -3 5 1 5 9 0 11 2 11 10 -1 5 -8
10 -10 10 -5 0 6 -4 16 -9 23 -6 11 -10 10 -15 -4z"/>
<path d="M2900 5686 c0 -14 4 -27 8 -30 5 -3 6 8 4 25 -5 35 -12 38 -12 5z"/>
<path d="M2923 5595 c0 -33 3 -43 8 -30 4 11 8 15 8 9 1 -5 8 -19 16 -30 11
-14 10 -7 -3 26 -11 25 -21 52 -24 60 -2 8 -5 -7 -5 -35z"/>
<path d="M2951 5615 c0 -14 58 -122 59 -110 0 6 9 -1 20 -15 15 -19 13 -10 -8
35 -38 82 -51 104 -52 85 0 -13 -1 -13 -10 0 -5 8 -10 11 -9 5z m48 -70 c0 -5
-6 1 -14 15 -8 14 -14 30 -14 35 0 6 6 -1 14 -15 8 -14 14 -29 14 -35z"/>
<path d="M4231 5544 c0 -11 3 -14 6 -6 3 7 2 16 -1 19 -3 4 -6 -2 -5 -13z"/>
<path d="M2935 5511 c-7 -13 16 -62 26 -55 5 3 9 1 9 -4 0 -5 11 -21 25 -36
14 -15 25 -24 25 -20 0 3 9 -4 21 -17 16 -19 15 -13 -7 26 -33 61 -39 67 -30
35 5 -17 -1 -12 -17 15 -13 22 -30 39 -37 37 -8 -2 -10 3 -7 13 7 16 2 21 -8
6z"/>
<path d="M4200 5475 c-7 -14 -17 -25 -22 -25 -5 0 -6 -5 -2 -11 3 -6 14 2 26
21 10 18 17 34 15 36 -2 2 -10 -7 -17 -21z"/>
<path d="M4161 5414 c0 -11 3 -14 6 -6 3 7 2 16 -1 19 -3 4 -6 -2 -5 -13z"/>
<path d="M4136 5405 c-9 -26 -7 -32 5 -12 6 10 9 21 6 23 -2 3 -7 -2 -11 -11z"/>
<path d="M4111 5374 c0 -11 3 -14 6 -6 3 7 2 16 -1 19 -3 4 -6 -2 -5 -13z"/>
<path d="M4060 5360 c-11 -11 -20 -17 -20 -12 -1 4 -7 -4 -15 -18 -8 -14 -14
-21 -15 -17 0 4 -16 -8 -35 -27 -19 -20 -35 -39 -35 -43 0 -4 8 1 16 12 8 11
20 19 25 17 5 -1 12 5 15 13 3 8 10 12 15 9 5 -3 9 -1 9 4 0 12 47 62 53 56 2
-3 7 2 10 11 8 20 1 19 -23 -5z"/>
<path d="M3200 5337 c0 -13 53 -103 72 -122 11 -11 0 12 -23 50 -45 76 -49 82
-49 72z"/>
<path d="M3860 5301 c0 -6 4 -13 10 -16 6 -3 7 1 4 9 -7 18 -14 21 -14 7z"/>
<path d="M3806 5270 c7 -28 12 -35 18 -29 2 2 -2 15 -10 29 l-15 25 7 -25z"/>
<path d="M3830 5281 c0 -5 5 -13 10 -16 6 -3 10 -2 10 4 0 5 -4 13 -10 16 -5
3 -10 2 -10 -4z"/>
<path d="M3294 5253 c21 -39 56 -89 56 -81 0 8 -62 108 -67 108 -2 0 3 -12 11
-27z"/>
<path d="M3770 5264 c0 -3 5 -14 10 -25 16 -28 30 -23 17 6 -11 22 -27 34 -27
19z"/>
<path d="M3920 5251 c-12 -24 -13 -34 -1 -27 9 6 22 46 15 46 -2 0 -8 -9 -14
-19z"/>
<path d="M3894 5235 c-5 -20 -9 -23 -15 -13 -7 10 -9 10 -9 0 0 -7 -4 -11 -9
-8 -10 6 -25 -24 -16 -32 3 -3 5 0 5 7 0 7 5 9 10 6 6 -3 10 -2 10 4 0 6 6 8
14 5 9 -3 15 4 19 23 7 37 0 43 -9 8z"/>
<path d="M3808 5168 c-22 -28 -26 -57 -4 -36 12 13 32 58 24 58 -2 0 -11 -10
-20 -22z"/>
<path d="M3770 5119 c0 -5 -5 -7 -11 -3 -7 4 -10 1 -7 -6 7 -23 28 -23 28 -1
0 12 -2 21 -5 21 -3 0 -5 -5 -5 -11z"/>
<path d="M3735 5081 c-3 -5 -1 -12 5 -16 5 -3 10 1 10 9 0 18 -6 21 -15 7z"/>
<path d="M3576 5034 c-3 -9 -1 -23 4 -32 9 -14 10 -12 4 7 -4 16 -3 21 5 17 7
-5 9 -1 5 8 -8 20 -10 20 -18 0z"/>
<path d="M3551 5024 c0 -11 3 -14 6 -6 3 7 2 16 -1 19 -3 4 -6 -2 -5 -13z"/>
<path d="M2358 4134 c-61 -32 -134 -98 -294 -263 l-139 -144 -5 89 -5 89 -24
-48 c-47 -95 -13 -247 83 -373 20 -26 34 -49 32 -51 -10 -10 -120 20 -178 49
-49 24 -91 59 -186 155 -105 107 -120 119 -107 86 59 -143 198 -258 387 -321
183 -61 373 -84 848 -102 309 -12 493 -28 905 -76 856 -100 1122 -107 1392
-39 170 43 335 146 415 257 l22 31 -35 -7 c-19 -3 -69 -34 -113 -68 -120 -93
-275 -152 -481 -183 -94 -14 -345 -21 -333 -10 3 3 47 17 98 31 174 46 328
131 449 248 81 79 115 123 160 213 42 82 39 92 -5 18 -36 -61 -104 -138 -137
-156 -14 -8 -30 1 -80 46 -116 104 -216 140 -322 115 -50 -11 -49 -13 -205
136 -143 136 -204 183 -286 222 -55 25 -68 27 -189 27 -110 -1 -154 -6 -285
-35 -130 -29 -176 -34 -280 -35 -119 0 -131 2 -235 38 -163 55 -251 68 -485
73 -113 2 -235 6 -272 7 -54 2 -76 -2 -110 -19z m1092 -304 c0 -5 -6 -10 -14
-10 -8 0 -22 -3 -30 -6 -12 -5 -15 -2 -10 10 7 17 54 23 54 6z m400 0 c0 -5
-6 -10 -14 -10 -8 0 -18 -5 -22 -12 -4 -7 -3 -8 4 -4 7 4 12 2 12 -5 0 -8 4
-8 13 -1 6 5 23 13 37 16 l25 7 -24 -21 c-16 -14 -33 -19 -47 -16 -13 4 -27 0
-34 -9 -7 -8 -19 -15 -26 -15 -8 0 -14 -4 -14 -10 0 -5 -6 -7 -14 -4 -9 3 -17
-3 -21 -15 -3 -12 -11 -21 -16 -21 -5 0 -9 -5 -9 -10 0 -6 11 -3 25 6 14 9 22
21 18 28 -3 6 -3 8 2 4 4 -4 20 -1 35 7 15 8 30 11 34 8 3 -4 6 -1 6 5 0 7 10
11 23 10 22 -1 80 25 72 33 -2 3 5 11 17 18 19 12 20 11 14 -5 -4 -10 -1 -21
6 -25 7 -4 9 -11 5 -16 -5 -4 -12 -2 -16 5 -8 13 -37 1 -105 -43 -12 -8 -32
-13 -44 -10 -14 2 -25 -2 -28 -10 -6 -15 -103 -60 -111 -51 -9 9 28 58 47 63
13 4 17 12 14 29 -2 13 0 24 6 24 6 0 8 -5 4 -12 -4 -7 19 7 52 30 61 43 74
49 74 32z m30 6 c0 -3 -4 -8 -10 -11 -5 -3 -10 -1 -10 4 0 6 5 11 10 11 6 0
10 -2 10 -4z m-695 -16 c-27 -12 -43 -12 -25 0 8 5 22 9 30 9 10 0 8 -3 -5 -9z
m111 3 c-2 -3 -10 -6 -18 -7 -7 -1 -33 -12 -58 -25 l-45 -22 35 30 c22 18 46
29 63 29 15 -1 25 -3 23 -5z m74 -1 c0 -4 -9 -13 -20 -20 -24 -15 -26 -9 -4
12 17 18 24 20 24 8z m154 -1 c4 -5 -3 -7 -14 -4 -11 3 -20 0 -20 -6 0 -11
-59 -45 -66 -38 -3 2 9 16 26 31 32 26 64 34 74 17z m46 5 c0 -2 -7 -6 -15
-10 -8 -3 -15 -1 -15 4 0 6 7 10 15 10 8 0 15 -2 15 -4z m100 -6 c-8 -5 -19
-10 -25 -10 -5 0 -3 5 5 10 8 5 20 10 25 10 6 0 3 -5 -5 -10z m110 0 c0 -9
-32 -30 -46 -30 -4 0 1 9 11 20 19 21 35 26 35 10z m-657 -10 c-13 -5 -23 -12
-23 -16 0 -3 7 -4 15 0 28 10 15 -3 -27 -29 -24 -15 -34 -24 -23 -20 11 3 17
4 15 3 -3 -2 -34 -31 -69 -64 -64 -58 -70 -58 -25 2 13 17 21 34 18 37 -3 3 3
4 13 4 9 -1 18 4 18 11 0 8 8 19 18 26 26 20 22 39 -8 32 -14 -4 -25 -4 -25
-1 0 10 43 22 84 23 34 1 37 -1 19 -8z m497 5 c0 -2 -9 -9 -20 -15 -24 -13
-50 -2 -29 11 15 9 49 12 49 4z m420 -5 c0 -5 -7 -10 -15 -10 -8 0 -15 5 -15
10 0 6 7 10 15 10 8 0 15 -4 15 -10z m-1053 -28 c-32 -33 -107 -78 -107 -64 0
14 58 62 75 62 7 0 18 7 25 15 7 8 17 15 23 15 6 0 -1 -13 -16 -28z m-47 15
c0 -2 -10 -12 -22 -23 -19 -17 -21 -17 -15 -2 3 10 -22 -11 -56 -45 -34 -34
-77 -70 -96 -81 l-34 -19 44 58 c47 63 118 115 156 115 13 0 23 -2 23 -3z
m220 -22 c-12 -13 -27 -22 -32 -19 -12 8 21 44 40 44 12 0 10 -6 -8 -25z m355
0 c-36 -29 -49 -32 -35 -6 10 20 25 29 50 30 9 1 3 -9 -15 -24z m135 20 c0 -8
-92 -65 -104 -65 -16 0 24 37 57 54 34 16 47 19 47 11z m-825 -14 c7 -12 -191
-155 -204 -147 -5 3 -30 -23 -56 -59 -25 -36 -48 -65 -51 -65 -2 0 4 17 15 39
29 55 128 141 216 187 42 21 72 40 66 42 -6 2 -30 -8 -54 -22 -48 -28 -62 -32
-51 -14 4 7 3 8 -5 4 -6 -4 -8 -12 -5 -18 4 -6 2 -8 -3 -5 -6 4 -18 -2 -28
-13 -10 -11 -24 -20 -30 -20 -7 0 -18 -6 -24 -14 -7 -8 -21 -14 -31 -13 -15 1
-17 4 -7 15 6 8 12 20 13 28 4 24 -15 16 -31 -13 -16 -31 -50 -70 -80 -93 -19
-15 -19 -14 -2 10 10 14 24 39 32 55 8 17 27 45 43 64 23 27 33 32 52 26 20
-6 21 -9 9 -19 -16 -13 -23 -36 -10 -36 4 0 20 9 34 20 14 11 30 20 35 20 6 0
14 4 17 10 4 6 -6 7 -26 3 -24 -5 -30 -3 -24 7 5 8 20 10 40 7 18 -3 38 0 45
6 10 9 11 9 6 0 -4 -8 2 -7 21 2 32 17 69 19 78 6z m1215 5 c0 -2 -9 -6 -20
-9 -11 -3 -18 -1 -14 4 5 9 34 13 34 5z m-630 -16 c0 -5 -5 -10 -11 -10 -5 0
-7 5 -4 10 3 6 8 10 11 10 2 0 4 -4 4 -10z m280 -20 c-11 -20 -48 -45 -56 -37
-5 4 53 57 62 57 3 0 0 -9 -6 -20z m235 10 c-3 -5 -14 -10 -23 -10 -15 0 -15
2 -2 10 20 13 33 13 25 0z m-265 -4 c0 -3 -4 -8 -10 -11 -5 -3 -10 -1 -10 4 0
6 5 11 10 11 6 0 10 -2 10 -4z m430 -8 c0 -4 -5 -8 -11 -8 -5 0 -7 -5 -4 -10
12 -19 -16 -40 -52 -40 -26 0 -36 -5 -42 -22 -14 -38 19 -45 102 -21 13 3 15
8 7 18 -8 9 -5 14 12 18 28 8 34 2 19 -16 -9 -12 -5 -14 27 -12 22 1 44 5 50
9 16 10 42 -4 41 -23 0 -10 -2 -11 -6 -3 -2 6 -9 12 -14 12 -6 0 -7 -5 -4 -10
4 -6 -14 -9 -47 -9 -58 2 -91 -8 -82 -23 7 -12 -25 -48 -43 -48 -19 0 -16 14
7 35 11 10 17 22 14 26 -9 15 -21 2 -44 -45 -34 -71 -90 -122 -90 -81 0 8 6
15 13 15 7 0 22 7 33 16 18 14 18 15 -4 4 -37 -18 -36 -6 2 35 19 20 28 34 19
31 -11 -5 -14 -1 -11 12 3 12 -2 23 -13 30 -25 16 -29 15 -29 -8 0 -22 -15
-27 -26 -8 -5 7 -3 8 6 3 10 -6 12 -4 7 9 -4 10 -1 19 8 22 8 4 12 10 10 15
-3 4 3 17 14 28 23 23 9 40 -16 19 -15 -12 -15 -11 -4 9 6 13 17 20 25 17 8
-3 17 0 21 6 8 12 105 11 105 -2z m50 -30 c0 -13 -5 -18 -14 -15 -7 3 -19 0
-25 -6 -18 -18 -13 10 6 32 19 23 33 19 33 -11z m40 -2 c0 -2 -7 -7 -16 -10
-8 -3 -12 -2 -9 4 6 10 25 14 25 6z m-249 -35 c-10 -19 -40 -35 -48 -27 -10
10 19 46 38 46 16 0 18 -3 10 -19z m244 0 c-8 -13 -35 -15 -35 -2 0 5 8 11 18
13 21 5 26 2 17 -11z m50 9 c3 -5 -3 -10 -14 -10 -12 0 -21 5 -21 10 0 6 6 10
14 10 8 0 18 -4 21 -10z m-181 -22 c-5 -8 0 -7 11 2 16 13 18 13 13 0 -7 -21
-48 -26 -48 -6 0 9 7 16 16 16 9 0 12 -5 8 -12z m-1484 -58 c-17 -22 -36 -39
-42 -37 -6 1 -21 -19 -35 -45 -13 -27 -28 -48 -33 -48 -15 0 -12 16 4 30 8 6
13 17 10 23 -5 14 53 97 67 97 6 0 7 -6 3 -12 -4 -7 3 -3 15 10 37 37 45 25
11 -18z m1640 0 c0 -15 -23 -24 -67 -26 -38 -1 -41 0 -33 16 7 14 22 18 55 18
25 0 45 -4 45 -8z m40 -5 c0 -8 -4 -15 -10 -15 -5 0 -10 7 -10 15 0 8 5 15 10
15 6 0 10 -7 10 -15z m-320 -21 c0 -4 -8 -13 -17 -20 -13 -10 -14 -13 -4 -14
8 0 2 -9 -13 -21 -34 -27 -43 -19 -20 18 24 36 54 57 54 37z"/>
<path d="M3825 3750 c-4 -6 -11 -8 -16 -5 -5 4 -9 1 -9 -4 0 -15 11 -13 34 4
11 8 15 15 9 15 -7 0 -15 -5 -18 -10z"/>
<path d="M2575 3740 c-3 -6 1 -7 9 -4 18 7 21 14 7 14 -6 0 -13 -4 -16 -10z"/>
<path d="M4021 3736 c-7 -8 -8 -17 -3 -20 6 -3 15 1 21 8 7 8 8 17 3 20 -6 3
-15 -1 -21 -8z"/>
<path d="M2383 2330 c-60 -27 -97 -86 -97 -155 0 -83 39 -125 149 -161 28 -9
58 -23 68 -32 36 -32 9 -82 -45 -82 -27 0 -88 33 -96 52 -2 4 -12 8 -22 8 -20
0 -80 -78 -80 -103 0 -18 62 -60 114 -77 50 -16 141 -9 190 15 63 32 99 84
104 154 3 42 -1 69 -13 95 -16 33 -68 76 -93 76 -6 0 -36 9 -67 21 -45 17 -55
25 -55 44 0 38 48 46 106 19 45 -21 58 -14 79 40 17 44 17 47 1 65 -38 41
-171 53 -243 21z"/>
<path d="M2880 2320 c-23 -42 -172 -478 -174 -505 l-1 -30 69 -3 c77 -3 86 2
101 56 l11 37 94 0 95 0 8 -30 c18 -58 20 -60 96 -63 56 -2 73 0 77 12 3 8
-14 73 -39 143 -24 70 -64 184 -87 253 -24 69 -47 130 -51 136 -5 6 -46 11
-99 12 -77 0 -92 -2 -100 -18z m124 -119 c3 -4 -6 -6 -19 -3 -14 2 -25 6 -25
8 0 8 39 4 44 -5z m-8 -48 c3 -16 15 -52 25 -82 23 -62 15 -75 -35 -66 -16 3
-35 5 -42 5 -8 0 -14 7 -14 16 0 25 44 154 52 154 4 0 10 -12 14 -27z"/>
<path d="M3322 2332 c-9 -6 -11 -70 -10 -273 l3 -264 170 0 170 0 3 44 c6 88
3 91 -92 91 -62 0 -85 4 -89 14 -3 7 -3 92 -1 189 2 96 1 183 -2 191 -5 12
-21 16 -73 16 -36 0 -72 -4 -79 -8z"/>
<path d="M3657 2333 c-15 -4 -17 -14 -15 -71 l3 -67 55 -5 55 -5 3 -194 c1
-107 5 -197 7 -200 3 -2 38 -5 77 -5 l72 -1 9 55 c5 30 7 121 4 203 -3 105 -1
147 7 148 6 1 23 0 38 -1 59 -4 68 6 68 70 0 32 -4 61 -9 64 -11 7 -349 15
-374 9z m190 -129 c-3 -3 -12 -4 -19 -1 -8 3 -5 6 6 6 11 1 17 -2 13 -5z"/>
<path d="M4457 2333 c-40 -6 -107 -73 -108 -109 -2 -47 2 -68 17 -91 20 -32
17 -46 -18 -68 -94 -60 -103 -187 -18 -258 57 -48 154 -48 241 -1 l48 27 18
-21 c15 -17 31 -21 88 -23 116 -3 118 0 49 73 l-46 50 31 32 c17 17 31 37 31
43 0 15 -69 83 -84 83 -6 0 -24 -13 -39 -30 -27 -28 -29 -29 -53 -14 -31 21
-30 35 2 65 57 53 68 133 25 185 -34 42 -115 67 -184 57z m91 -134 c4 -34 -31
-67 -53 -49 -15 13 -21 61 -8 74 4 4 19 6 33 4 18 -2 26 -10 28 -29z m-44
-246 c26 -31 26 -32 7 -42 -64 -34 -115 11 -75 67 18 26 29 21 68 -25z"/>
<path d="M3382 1448 c-195 -64 -259 -306 -122 -461 41 -47 99 -81 168 -98 107
-26 248 36 306 135 97 166 16 372 -169 428 -67 21 -109 20 -183 -4z m159 -145
c74 -44 92 -172 34 -233 -99 -103 -248 -12 -221 134 8 40 49 94 80 105 35 13
79 11 107 -6z"/>
<path d="M4015 1453 c-125 -37 -207 -145 -208 -273 0 -143 96 -258 243 -290
47 -10 66 -10 119 4 293 75 304 470 16 558 -62 20 -106 20 -170 1z m152 -153
c68 -44 84 -172 28 -230 -79 -82 -198 -46 -221 68 -13 67 26 151 80 172 30 11
87 6 113 -10z"/>
<path d="M2383 1440 c-61 -27 -98 -87 -97 -156 2 -84 39 -124 149 -160 28 -9
58 -23 68 -32 36 -32 9 -82 -46 -82 -29 0 -97 36 -97 53 0 4 -9 7 -20 7 -20 0
-80 -77 -80 -103 0 -18 62 -60 114 -77 50 -16 141 -9 190 15 63 32 99 84 104
154 3 42 -1 69 -13 95 -16 33 -68 76 -93 76 -6 0 -36 9 -67 21 -45 17 -55 25
-55 44 0 38 48 46 106 19 45 -21 58 -14 79 40 17 44 17 47 1 65 -38 41 -171
53 -243 21z"/>
<path d="M2744 1439 c-9 -16 -16 -512 -7 -525 12 -16 130 -25 142 -10 6 7 11
48 13 91 l3 80 70 1 c84 1 125 19 159 72 71 108 23 260 -92 292 -51 14 -279
13 -288 -1z m233 -140 c16 -14 17 -61 1 -77 -7 -7 -29 -12 -50 -12 l-38 0 0
48 c0 27 3 52 7 56 10 10 62 -1 80 -15z"/>
<path d="M4444 1438 c-8 -12 -13 -463 -6 -511 l4 -28 77 3 76 3 2 140 c1 77 2
146 3 153 0 6 5 12 11 12 5 0 8 -4 5 -9 -3 -5 3 -19 13 -32 10 -13 55 -76 101
-139 46 -63 88 -118 94 -122 20 -14 133 -9 145 6 8 9 11 90 9 272 l-3 259 -75
0 -75 0 -5 -155 -5 -155 -72 106 c-39 58 -90 129 -112 157 l-41 52 -70 0 c-41
0 -72 -5 -76 -12z m121 -118 c-3 -5 -16 -10 -28 -9 -20 1 -20 2 3 9 14 4 26 8
28 9 2 1 0 -3 -3 -9z m32 -26 c-3 -3 -12 -4 -19 -1 -8 3 -5 6 6 6 11 1 17 -2
13 -5z m-17 -46 c0 -5 -10 -8 -22 -7 -13 0 -17 3 -10 6 6 2 12 12 12 21 0 15
2 15 10 2 5 -8 10 -18 10 -22z m280 -158 c13 -8 13 -10 -2 -10 -9 0 -20 5 -23
10 -8 13 5 13 25 0z m-3 -26 c-3 -3 -12 -4 -19 -1 -8 3 -5 6 6 6 11 1 17 -2
13 -5z"/>
</g>
</svg>
